# xmcd CD database file
#
# Track frame offsets:
#	150
#	18282
#	28044
#	37422
#	52222
#	81025
#	90672
#	99585
#	108037
#	125162
#	142447
#	158932
#	173982
#	188855
#	200527
#
# Disc length: 3034 seconds
#
# Revision: 3
# Processed by: cddbd v1.5.1PL2 Copyright (c) Steve Scherf et al.
# Submitted via: CDex 1.51
#
DISCID=da0bd80f
DTITLE=The Clash - The Story of The Clash [CD2]
DYEAR=1991
DGENRE=Rock
TTITLE0=(White Man) In Hammersmith Palais
TTITLE1=London 's Burning
TTITLE2=Janie Jones
TTITLE3=Tommy Gun
TTITLE4=Compleate Control
TTITLE5=Capital Radio One
TTITLE6=White Riot
TTITLE7=Career Opportunities
TTITLE8=Clash City Rockers
TTITLE9=Safe European Home
TTITLE10=Stay Free
TTITLE11=London Calling
TTITLE12=Spanish Bombs
TTITLE13=English Civil War
TTITLE14=Police and Thieves
EXTD=YEAR: 1991
EXTT0=
EXTT1=
EXTT2=
EXTT3=
EXTT4=
EXTT5=
EXTT6=
EXTT7=
EXTT8=
EXTT9=
EXTT10=
EXTT11=
EXTT12=
EXTT13=
EXTT14=
PLAYORDER=
